<mxfile host="app.diagrams.net" modified="2024-05-14T15:45:36.714Z" agent="Mozilla/5.0 (Windows NT 10.0; Win64; x64) AppleWebKit/537.36 (KHTML, like Gecko) Chrome/124.0.0.0 Safari/537.36 Edg/124.0.0.0" etag="HgaoIiQ6FyI2I0ERY8AJ" version="24.4.0" type="github">
  <diagram name="Page-1" id="zdgaAKbWMqd8TMpTbGGf">
    <mxGraphModel dx="3500" dy="1910" grid="1" gridSize="10" guides="1" tooltips="1" connect="1" arrows="1" fold="1" page="1" pageScale="1" pageWidth="2000" pageHeight="4000" math="0" shadow="0">
      <root>
        <mxCell id="0" />
        <mxCell id="1" parent="0" />
        <mxCell id="l-8PWlTFrOlijLcWu4DZ-17" style="edgeStyle=orthogonalEdgeStyle;rounded=0;orthogonalLoop=1;jettySize=auto;html=1;entryX=0.5;entryY=1;entryDx=0;entryDy=0;" parent="1" target="l-8PWlTFrOlijLcWu4DZ-18" edge="1">
          <mxGeometry relative="1" as="geometry">
            <mxPoint x="1930" y="180" as="targetPoint" />
            <Array as="points" />
            <mxPoint x="1875" y="200" as="sourcePoint" />
          </mxGeometry>
        </mxCell>
        <mxCell id="l-8PWlTFrOlijLcWu4DZ-6" value="UWeaponComponent" style="swimlane;fontStyle=1;align=center;verticalAlign=top;childLayout=stackLayout;horizontal=1;startSize=26;horizontalStack=0;resizeParent=1;resizeParentMax=0;resizeLast=0;collapsible=1;marginBottom=0;whiteSpace=wrap;html=1;" parent="1" vertex="1">
          <mxGeometry x="2180" y="460" width="340" height="260" as="geometry" />
        </mxCell>
        <mxCell id="l-8PWlTFrOlijLcWu4DZ-7" value="+ Character APlayerCharacter*&amp;nbsp;&lt;div&gt;+ DamageType&amp;nbsp;&lt;span style=&quot;background-color: initial;&quot;&gt;TSubClassOf&amp;lt;UDamageType&amp;gt;&lt;/span&gt;&lt;span style=&quot;background-color: initial;&quot;&gt;&amp;nbsp;&lt;/span&gt;&lt;/div&gt;&lt;div&gt;+ FireAction UInputAction*&amp;nbsp;&lt;br&gt;&lt;div&gt;+ FireAnimation&amp;nbsp;&lt;span style=&quot;background-color: initial;&quot;&gt;UAnimMontage*&lt;/span&gt;&lt;span style=&quot;background-color: initial;&quot;&gt;&amp;nbsp;&lt;/span&gt;&lt;/div&gt;&lt;/div&gt;&lt;div&gt;+ FireIMC&amp;nbsp;&lt;span style=&quot;background-color: initial;&quot;&gt;UInputMappingContext*&lt;/span&gt;&lt;span style=&quot;background-color: initial;&quot;&gt;&amp;nbsp;&lt;/span&gt;&lt;/div&gt;&lt;div&gt;+ FireTerrariumIMC&amp;nbsp;&lt;span style=&quot;background-color: initial;&quot;&gt;UInputMappingContext*&lt;/span&gt;&lt;span style=&quot;background-color: initial;&quot;&gt;&amp;nbsp;&lt;/span&gt;&lt;/div&gt;&lt;div&gt;+ GuntipOffset&amp;nbsp;&lt;span style=&quot;background-color: initial;&quot;&gt;FVector&lt;/span&gt;&lt;span style=&quot;background-color: initial;&quot;&gt;&amp;nbsp;&lt;/span&gt;&lt;/div&gt;&lt;div&gt;+ TraceChannelProperty&amp;nbsp;&lt;span style=&quot;background-color: initial;&quot;&gt;TEnumAsByte&amp;lt;EcollisionChannel&amp;gt;&lt;/span&gt;&lt;span style=&quot;background-color: initial;&quot;&gt;&amp;nbsp;&lt;/span&gt;&lt;/div&gt;&lt;div&gt;+ WeaponBeam&amp;nbsp;&lt;span style=&quot;background-color: initial;&quot;&gt;UNiagaraSystem*&lt;/span&gt;&lt;/div&gt;&lt;div&gt;+ WeaponDamage&amp;nbsp;&lt;span style=&quot;background-color: initial;&quot;&gt;float&lt;/span&gt;&lt;/div&gt;" style="text;strokeColor=none;fillColor=none;align=left;verticalAlign=top;spacingLeft=4;spacingRight=4;overflow=hidden;rotatable=0;points=[[0,0.5],[1,0.5]];portConstraint=eastwest;whiteSpace=wrap;html=1;" parent="l-8PWlTFrOlijLcWu4DZ-6" vertex="1">
          <mxGeometry y="26" width="340" height="154" as="geometry" />
        </mxCell>
        <mxCell id="l-8PWlTFrOlijLcWu4DZ-8" value="" style="line;strokeWidth=1;fillColor=none;align=left;verticalAlign=middle;spacingTop=-1;spacingLeft=3;spacingRight=3;rotatable=0;labelPosition=right;points=[];portConstraint=eastwest;strokeColor=inherit;" parent="l-8PWlTFrOlijLcWu4DZ-6" vertex="1">
          <mxGeometry y="180" width="340" height="8" as="geometry" />
        </mxCell>
        <mxCell id="l-8PWlTFrOlijLcWu4DZ-9" value="+ AttachComponentToPlayer(APlayerCharacter*) void&amp;nbsp;&lt;div&gt;+ EndPay()&amp;nbsp;&lt;span style=&quot;background-color: initial;&quot;&gt;void&lt;/span&gt;&lt;span style=&quot;background-color: initial;&quot;&gt;&amp;nbsp;&lt;/span&gt;&lt;/div&gt;&lt;div&gt;+ FireWeapon()&amp;nbsp;&lt;span style=&quot;background-color: initial;&quot;&gt;void&lt;/span&gt;&lt;span style=&quot;background-color: initial;&quot;&gt;&amp;nbsp;&lt;/span&gt;&lt;/div&gt;&lt;div&gt;+ UWeaponComponent()&lt;span style=&quot;background-color: initial;&quot;&gt;&amp;nbsp;&lt;/span&gt;&lt;span style=&quot;background-color: initial;&quot;&gt;void&lt;/span&gt;&lt;/div&gt;" style="text;strokeColor=none;fillColor=none;align=left;verticalAlign=top;spacingLeft=4;spacingRight=4;overflow=hidden;rotatable=0;points=[[0,0.5],[1,0.5]];portConstraint=eastwest;whiteSpace=wrap;html=1;" parent="l-8PWlTFrOlijLcWu4DZ-6" vertex="1">
          <mxGeometry y="188" width="340" height="72" as="geometry" />
        </mxCell>
        <mxCell id="l-8PWlTFrOlijLcWu4DZ-10" style="edgeStyle=orthogonalEdgeStyle;rounded=0;orthogonalLoop=1;jettySize=auto;html=1;endArrow=none;endFill=0;" parent="1" edge="1">
          <mxGeometry relative="1" as="geometry">
            <mxPoint x="2180" y="468.9473684210525" as="sourcePoint" />
            <mxPoint x="2040" y="210" as="targetPoint" />
            <Array as="points">
              <mxPoint x="2110" y="469" />
              <mxPoint x="2110" y="220" />
              <mxPoint x="2040" y="220" />
            </Array>
          </mxGeometry>
        </mxCell>
        <mxCell id="l-8PWlTFrOlijLcWu4DZ-11" value="1" style="edgeLabel;html=1;align=center;verticalAlign=middle;resizable=0;points=[];" parent="l-8PWlTFrOlijLcWu4DZ-10" vertex="1" connectable="0">
          <mxGeometry x="-0.9303" y="3" relative="1" as="geometry">
            <mxPoint y="-12" as="offset" />
          </mxGeometry>
        </mxCell>
        <mxCell id="l-8PWlTFrOlijLcWu4DZ-12" value="1" style="edgeLabel;html=1;align=center;verticalAlign=middle;resizable=0;points=[];" parent="l-8PWlTFrOlijLcWu4DZ-10" vertex="1" connectable="0">
          <mxGeometry x="0.914" y="2" relative="1" as="geometry">
            <mxPoint x="3" y="-12" as="offset" />
          </mxGeometry>
        </mxCell>
        <mxCell id="l-8PWlTFrOlijLcWu4DZ-15" value="&lt;p style=&quot;margin:0px;margin-top:4px;text-align:center;&quot;&gt;&lt;i&gt;&amp;lt;&amp;lt;Interface&amp;gt;&amp;gt;&lt;/i&gt;&lt;br&gt;&lt;b&gt;ICameraSwitchInterface&lt;/b&gt;&lt;/p&gt;&lt;hr size=&quot;1&quot; style=&quot;border-style:solid;&quot;&gt;&lt;p style=&quot;margin:0px;margin-left:4px;&quot;&gt;+ RunOnTagEndOverlap(FString Tag): void&lt;br&gt;+ RunOnTagOverlap(FString Tag): void&lt;/p&gt;" style="verticalAlign=top;align=left;overflow=fill;html=1;whiteSpace=wrap;" parent="1" vertex="1">
          <mxGeometry x="2160" y="130" width="250" height="90" as="geometry" />
        </mxCell>
        <mxCell id="l-8PWlTFrOlijLcWu4DZ-18" value="&lt;p style=&quot;margin:0px;margin-top:4px;text-align:center;&quot;&gt;&lt;b&gt;ACharacter&lt;/b&gt;&lt;/p&gt;&lt;div style=&quot;height:2px;&quot;&gt;&lt;/div&gt;" style="verticalAlign=top;align=left;overflow=fill;html=1;whiteSpace=wrap;" parent="1" vertex="1">
          <mxGeometry x="1805" y="120" width="140" height="30" as="geometry" />
        </mxCell>
        <mxCell id="l-8PWlTFrOlijLcWu4DZ-13" style="edgeStyle=orthogonalEdgeStyle;rounded=0;orthogonalLoop=1;jettySize=auto;html=1;entryX=0;entryY=0.25;entryDx=0;entryDy=0;exitX=0.5;exitY=0;exitDx=0;exitDy=0;" parent="1" target="l-8PWlTFrOlijLcWu4DZ-15" edge="1">
          <mxGeometry relative="1" as="geometry">
            <mxPoint x="2190" y="800" as="targetPoint" />
            <Array as="points">
              <mxPoint x="1875" y="190" />
              <mxPoint x="1990" y="190" />
              <mxPoint x="1990" y="153" />
            </Array>
            <mxPoint x="1875" y="200" as="sourcePoint" />
          </mxGeometry>
        </mxCell>
        <mxCell id="J19v4T6y1fvecI04w9pI-1" value="ANPC" style="swimlane;fontStyle=1;align=center;verticalAlign=top;childLayout=stackLayout;horizontal=1;startSize=26;horizontalStack=0;resizeParent=1;resizeParentMax=0;resizeLast=0;collapsible=1;marginBottom=0;whiteSpace=wrap;html=1;" parent="1" vertex="1">
          <mxGeometry x="1230" y="190" width="330" height="280" as="geometry" />
        </mxCell>
        <mxCell id="J19v4T6y1fvecI04w9pI-2" value="&lt;div&gt;&lt;span style=&quot;background-color: initial;&quot;&gt;+ Health: float&lt;/span&gt;&lt;br&gt;&lt;/div&gt;&lt;div&gt;+ Max&lt;span style=&quot;background-color: initial;&quot;&gt;Health: float&lt;/span&gt;&lt;/div&gt;&lt;div&gt;&lt;br&gt;&lt;/div&gt;&lt;div&gt;+EnemyIsDead: bool&lt;/div&gt;&lt;div&gt;+ bCanDrop: bool&lt;/div&gt;&lt;div&gt;&lt;br&gt;&lt;/div&gt;&lt;div&gt;&lt;span style=&quot;background-color: initial;&quot;&gt;+ SpawnInfo: FActorSpawnParameters&lt;/span&gt;&lt;br&gt;&lt;/div&gt;&lt;div&gt;&lt;span style=&quot;background-color: initial;&quot;&gt;+ HealthPickUp: TSubclassOf&amp;lt;AActor&amp;gt;&amp;nbsp;&lt;/span&gt;&lt;br&gt;&lt;/div&gt;&lt;div&gt;&lt;span style=&quot;background-color: initial;&quot;&gt;&lt;br&gt;&lt;/span&gt;&lt;/div&gt;&lt;div&gt;&lt;br&gt;&lt;/div&gt;" style="text;strokeColor=none;fillColor=none;align=left;verticalAlign=top;spacingLeft=4;spacingRight=4;overflow=hidden;rotatable=0;points=[[0,0.5],[1,0.5]];portConstraint=eastwest;whiteSpace=wrap;html=1;" parent="J19v4T6y1fvecI04w9pI-1" vertex="1">
          <mxGeometry y="26" width="330" height="124" as="geometry" />
        </mxCell>
        <mxCell id="J19v4T6y1fvecI04w9pI-3" value="" style="line;strokeWidth=1;fillColor=none;align=left;verticalAlign=middle;spacingTop=-1;spacingLeft=3;spacingRight=3;rotatable=0;labelPosition=right;points=[];portConstraint=eastwest;strokeColor=inherit;" parent="J19v4T6y1fvecI04w9pI-1" vertex="1">
          <mxGeometry y="150" width="330" height="28" as="geometry" />
        </mxCell>
        <mxCell id="J19v4T6y1fvecI04w9pI-4" value="&lt;div&gt;&lt;span style=&quot;background-color: initial;&quot;&gt;# BeginPlay(): void&lt;/span&gt;&lt;/div&gt;&lt;div&gt;+ Die(): void&lt;/div&gt;&lt;div&gt;+ TakeDamage( float,&amp;nbsp; FDamageEvent const&amp;amp;,&amp;nbsp; AController*,&amp;nbsp; AActor*): float&lt;/div&gt;&lt;div&gt;+ SetupPlayerInputComponent( UInputComponent*): void&lt;/div&gt;&lt;div&gt;+ Tick( float): void&lt;/div&gt;&lt;div&gt;&lt;br&gt;&lt;/div&gt;" style="text;strokeColor=none;fillColor=none;align=left;verticalAlign=top;spacingLeft=4;spacingRight=4;overflow=hidden;rotatable=0;points=[[0,0.5],[1,0.5]];portConstraint=eastwest;whiteSpace=wrap;html=1;" parent="J19v4T6y1fvecI04w9pI-1" vertex="1">
          <mxGeometry y="178" width="330" height="102" as="geometry" />
        </mxCell>
        <mxCell id="J19v4T6y1fvecI04w9pI-6" value="" style="endArrow=classic;html=1;rounded=0;exitX=0.5;exitY=0;exitDx=0;exitDy=0;" parent="1" source="J19v4T6y1fvecI04w9pI-1" edge="1">
          <mxGeometry width="50" height="50" relative="1" as="geometry">
            <mxPoint x="1570" y="180" as="sourcePoint" />
            <mxPoint x="1800" y="135" as="targetPoint" />
            <Array as="points">
              <mxPoint x="1395" y="135" />
            </Array>
          </mxGeometry>
        </mxCell>
        <mxCell id="J19v4T6y1fvecI04w9pI-8" value="&lt;p style=&quot;margin:0px;margin-top:4px;text-align:center;&quot;&gt;&lt;b&gt;AActor&lt;/b&gt;&lt;/p&gt;" style="verticalAlign=top;align=left;overflow=fill;html=1;whiteSpace=wrap;" parent="1" vertex="1">
          <mxGeometry x="2850" y="120" width="140" height="30" as="geometry" />
        </mxCell>
        <mxCell id="J19v4T6y1fvecI04w9pI-10" value="AVent" style="swimlane;fontStyle=1;align=center;verticalAlign=top;childLayout=stackLayout;horizontal=1;startSize=26;horizontalStack=0;resizeParent=1;resizeParentMax=0;resizeLast=0;collapsible=1;marginBottom=0;whiteSpace=wrap;html=1;" parent="1" vertex="1">
          <mxGeometry x="2755" y="250" width="330" height="510" as="geometry" />
        </mxCell>
        <mxCell id="J19v4T6y1fvecI04w9pI-11" value="&lt;div&gt;&lt;span style=&quot;background-color: initial;&quot;&gt;+ VentMesh:&amp;nbsp;&lt;/span&gt;&lt;span style=&quot;background-color: initial;&quot;&gt;UStaticMeshComponent*&lt;/span&gt;&lt;/div&gt;&lt;div&gt;&lt;span style=&quot;background-color: initial;&quot;&gt;+ VentButtonCollision:&amp;nbsp;&lt;/span&gt;&lt;span style=&quot;background-color: initial;&quot;&gt;UBoxComponent*&lt;/span&gt;&lt;/div&gt;&lt;div&gt;&lt;span style=&quot;background-color: initial;&quot;&gt;+ VentCollision:&amp;nbsp;&lt;/span&gt;&lt;span style=&quot;background-color: initial;&quot;&gt;UBoxComponent*&lt;/span&gt;&lt;span style=&quot;background-color: initial;&quot;&gt;&lt;br&gt;&lt;/span&gt;&lt;/div&gt;&lt;div&gt;&lt;span style=&quot;background-color: initial;&quot;&gt;+ DeathCollision:&amp;nbsp;&lt;/span&gt;&lt;span style=&quot;background-color: initial;&quot;&gt;UBoxComponent*&lt;/span&gt;&lt;/div&gt;&lt;div&gt;+ Speed&lt;span style=&quot;background-color: initial;&quot;&gt;: float&lt;/span&gt;&lt;/div&gt;&lt;div&gt;&lt;span style=&quot;background-color: initial;&quot;&gt;+ RotationDegree: int&lt;/span&gt;&lt;/div&gt;&lt;div&gt;&lt;br&gt;&lt;/div&gt;&lt;div&gt;+ bCanStart: bool&lt;/div&gt;&lt;div&gt;+ bCanStop: bool&lt;/div&gt;&lt;div&gt;+ bBoxIsPassed: bool&lt;br&gt;&lt;/div&gt;&lt;div&gt;&lt;br&gt;&lt;/div&gt;&lt;div&gt;+ VentRotation: FRotator&lt;/div&gt;&lt;div&gt;+ DamageType: TSubclassOf&amp;lt;UDamageType&amp;gt;&amp;nbsp;&lt;/div&gt;&lt;div&gt;&lt;br&gt;&lt;/div&gt;" style="text;strokeColor=none;fillColor=none;align=left;verticalAlign=top;spacingLeft=4;spacingRight=4;overflow=hidden;rotatable=0;points=[[0,0.5],[1,0.5]];portConstraint=eastwest;whiteSpace=wrap;html=1;" parent="J19v4T6y1fvecI04w9pI-10" vertex="1">
          <mxGeometry y="26" width="330" height="204" as="geometry" />
        </mxCell>
        <mxCell id="J19v4T6y1fvecI04w9pI-12" value="" style="line;strokeWidth=1;fillColor=none;align=left;verticalAlign=middle;spacingTop=-1;spacingLeft=3;spacingRight=3;rotatable=0;labelPosition=right;points=[];portConstraint=eastwest;strokeColor=inherit;" parent="J19v4T6y1fvecI04w9pI-10" vertex="1">
          <mxGeometry y="230" width="330" height="28" as="geometry" />
        </mxCell>
        <mxCell id="J19v4T6y1fvecI04w9pI-13" value="&lt;div&gt;&lt;span style=&quot;background-color: initial;&quot;&gt;# BeginPlay(): void&lt;/span&gt;&lt;/div&gt;&lt;div&gt;+ Die(): void&lt;/div&gt;&lt;div&gt;+ RotateVent(): void&lt;br&gt;&lt;/div&gt;&lt;div&gt;+ StopRotation(): void&lt;br&gt;&lt;/div&gt;&lt;div&gt;+OnBoxBeginOverlap(OverlappedComponent: UPrimitiveComponent*, OtherActor: AActor*, OtherComp: UPrimitiveComponent*, OtherBodyIndex: int32, bFromSweep: bool, SweepResult: FHitResult&amp;amp;): void&lt;/div&gt;&lt;div&gt;+OnDieBoxBeginOverlap(OverlappedComponent: UPrimitiveComponent*, OtherActor: AActor*, OtherComp: UPrimitiveComponent*, OtherBodyIndex: int32, bFromSweep: bool, SweepResult: FHitResult&amp;amp;): void&lt;br&gt;&lt;/div&gt;&lt;div&gt;+OnBoxEndOverlap(OverlappedComponent: UPrimitiveComponent*, OtherActor: AActor*, OtherComp: UPrimitiveComponent*, OtherBodyIndex: int32): void&lt;br&gt;&lt;/div&gt;&lt;div&gt;+ Tick(DeltaTime: float): void&lt;/div&gt;" style="text;strokeColor=none;fillColor=none;align=left;verticalAlign=top;spacingLeft=4;spacingRight=4;overflow=hidden;rotatable=0;points=[[0,0.5],[1,0.5]];portConstraint=eastwest;whiteSpace=wrap;html=1;" parent="J19v4T6y1fvecI04w9pI-10" vertex="1">
          <mxGeometry y="258" width="330" height="252" as="geometry" />
        </mxCell>
        <mxCell id="J19v4T6y1fvecI04w9pI-14" value="" style="endArrow=classic;html=1;rounded=0;entryX=0.5;entryY=1;entryDx=0;entryDy=0;exitX=0.5;exitY=0;exitDx=0;exitDy=0;" parent="1" source="J19v4T6y1fvecI04w9pI-10" target="J19v4T6y1fvecI04w9pI-8" edge="1">
          <mxGeometry width="50" height="50" relative="1" as="geometry">
            <mxPoint x="2830" y="200" as="sourcePoint" />
            <mxPoint x="1980" y="500" as="targetPoint" />
          </mxGeometry>
        </mxCell>
        <mxCell id="J19v4T6y1fvecI04w9pI-15" value="" style="endArrow=classic;html=1;rounded=0;entryX=0;entryY=0.5;entryDx=0;entryDy=0;exitX=0.5;exitY=0;exitDx=0;exitDy=0;" parent="1" source="J19v4T6y1fvecI04w9pI-17" target="J19v4T6y1fvecI04w9pI-8" edge="1">
          <mxGeometry width="50" height="50" relative="1" as="geometry">
            <mxPoint x="2610" y="240" as="sourcePoint" />
            <mxPoint x="2780" y="390" as="targetPoint" />
            <Array as="points">
              <mxPoint x="2590" y="135" />
            </Array>
          </mxGeometry>
        </mxCell>
        <mxCell id="J19v4T6y1fvecI04w9pI-17" value="AHealingObject" style="swimlane;fontStyle=1;align=center;verticalAlign=top;childLayout=stackLayout;horizontal=1;startSize=26;horizontalStack=0;resizeParent=1;resizeParentMax=0;resizeLast=0;collapsible=1;marginBottom=0;whiteSpace=wrap;html=1;" parent="1" vertex="1">
          <mxGeometry x="2470" y="160" width="240" height="130" as="geometry" />
        </mxCell>
        <mxCell id="J19v4T6y1fvecI04w9pI-18" value="&lt;div&gt;&lt;span style=&quot;background-color: initial;&quot;&gt;+ HealingMesh:&amp;nbsp;&lt;/span&gt;&lt;span style=&quot;background-color: initial;&quot;&gt;UStaticMeshComponent*&lt;/span&gt;&lt;/div&gt;&lt;div&gt;&lt;span style=&quot;background-color: initial;&quot;&gt;&amp;nbsp;&lt;/span&gt;&lt;/div&gt;&lt;div&gt;&lt;br&gt;&lt;/div&gt;&lt;div&gt;&lt;br&gt;&lt;/div&gt;" style="text;strokeColor=none;fillColor=none;align=left;verticalAlign=top;spacingLeft=4;spacingRight=4;overflow=hidden;rotatable=0;points=[[0,0.5],[1,0.5]];portConstraint=eastwest;whiteSpace=wrap;html=1;" parent="J19v4T6y1fvecI04w9pI-17" vertex="1">
          <mxGeometry y="26" width="240" height="34" as="geometry" />
        </mxCell>
        <mxCell id="J19v4T6y1fvecI04w9pI-19" value="" style="line;strokeWidth=1;fillColor=none;align=left;verticalAlign=middle;spacingTop=-1;spacingLeft=3;spacingRight=3;rotatable=0;labelPosition=right;points=[];portConstraint=eastwest;strokeColor=inherit;" parent="J19v4T6y1fvecI04w9pI-17" vertex="1">
          <mxGeometry y="60" width="240" height="28" as="geometry" />
        </mxCell>
        <mxCell id="J19v4T6y1fvecI04w9pI-20" value="&lt;div&gt;&lt;span style=&quot;background-color: initial;&quot;&gt;# BeginPlay(): void&lt;/span&gt;&lt;/div&gt;&lt;div&gt;+ Tick(DeltaTime: float): void&lt;/div&gt;" style="text;strokeColor=none;fillColor=none;align=left;verticalAlign=top;spacingLeft=4;spacingRight=4;overflow=hidden;rotatable=0;points=[[0,0.5],[1,0.5]];portConstraint=eastwest;whiteSpace=wrap;html=1;" parent="J19v4T6y1fvecI04w9pI-17" vertex="1">
          <mxGeometry y="88" width="240" height="42" as="geometry" />
        </mxCell>
        <mxCell id="J19v4T6y1fvecI04w9pI-22" value="1" style="edgeLabel;html=1;align=center;verticalAlign=middle;resizable=0;points=[];" parent="1" vertex="1" connectable="0">
          <mxGeometry x="2670.0047278423826" y="320.00165630460236" as="geometry">
            <mxPoint x="74" y="-79" as="offset" />
          </mxGeometry>
        </mxCell>
        <mxCell id="rLvogrCwxNl-othwZs6G-1" value="AVial" style="swimlane;fontStyle=1;align=center;verticalAlign=top;childLayout=stackLayout;horizontal=1;startSize=26;horizontalStack=0;resizeParent=1;resizeParentMax=0;resizeLast=0;collapsible=1;marginBottom=0;whiteSpace=wrap;html=1;" parent="1" vertex="1">
          <mxGeometry x="3140" y="150" width="240" height="140" as="geometry" />
        </mxCell>
        <mxCell id="rLvogrCwxNl-othwZs6G-2" value="&lt;div&gt;&lt;span style=&quot;background-color: initial;&quot;&gt;+ VialMesh:&amp;nbsp;&lt;/span&gt;&lt;span style=&quot;background-color: initial;&quot;&gt;UStaticMeshComponent*&lt;/span&gt;&lt;/div&gt;&lt;div&gt;&lt;span style=&quot;background-color: initial;&quot;&gt;&amp;nbsp;&lt;/span&gt;&lt;/div&gt;&lt;div&gt;&lt;br&gt;&lt;/div&gt;&lt;div&gt;&lt;br&gt;&lt;/div&gt;" style="text;strokeColor=none;fillColor=none;align=left;verticalAlign=top;spacingLeft=4;spacingRight=4;overflow=hidden;rotatable=0;points=[[0,0.5],[1,0.5]];portConstraint=eastwest;whiteSpace=wrap;html=1;" parent="rLvogrCwxNl-othwZs6G-1" vertex="1">
          <mxGeometry y="26" width="240" height="24" as="geometry" />
        </mxCell>
        <mxCell id="rLvogrCwxNl-othwZs6G-3" value="" style="line;strokeWidth=1;fillColor=none;align=left;verticalAlign=middle;spacingTop=-1;spacingLeft=3;spacingRight=3;rotatable=0;labelPosition=right;points=[];portConstraint=eastwest;strokeColor=inherit;" parent="rLvogrCwxNl-othwZs6G-1" vertex="1">
          <mxGeometry y="50" width="240" height="48" as="geometry" />
        </mxCell>
        <mxCell id="rLvogrCwxNl-othwZs6G-4" value="&lt;div&gt;&lt;span style=&quot;background-color: initial;&quot;&gt;# BeginPlay(): void&lt;/span&gt;&lt;/div&gt;&lt;div&gt;+ Tick(DeltaTime: float): void&lt;/div&gt;" style="text;strokeColor=none;fillColor=none;align=left;verticalAlign=top;spacingLeft=4;spacingRight=4;overflow=hidden;rotatable=0;points=[[0,0.5],[1,0.5]];portConstraint=eastwest;whiteSpace=wrap;html=1;" parent="rLvogrCwxNl-othwZs6G-1" vertex="1">
          <mxGeometry y="98" width="240" height="42" as="geometry" />
        </mxCell>
        <mxCell id="rLvogrCwxNl-othwZs6G-5" value="" style="endArrow=classic;html=1;rounded=0;entryX=1;entryY=0.5;entryDx=0;entryDy=0;exitX=0;exitY=0;exitDx=0;exitDy=0;" parent="1" source="rLvogrCwxNl-othwZs6G-1" target="J19v4T6y1fvecI04w9pI-8" edge="1">
          <mxGeometry width="50" height="50" relative="1" as="geometry">
            <mxPoint x="3040" y="147.5" as="sourcePoint" />
            <mxPoint x="3300" y="122.5" as="targetPoint" />
            <Array as="points">
              <mxPoint x="3140" y="135" />
            </Array>
          </mxGeometry>
        </mxCell>
        <mxCell id="ZGs6x3_PHytGy2VI0v85-1" value="APlayerCharacter" style="swimlane;fontStyle=1;align=center;verticalAlign=top;childLayout=stackLayout;horizontal=1;startSize=26;horizontalStack=0;resizeParent=1;resizeParentMax=0;resizeLast=0;collapsible=1;marginBottom=0;whiteSpace=wrap;html=1;" parent="1" vertex="1">
          <mxGeometry x="1710" y="200" width="330" height="1230" as="geometry" />
        </mxCell>
        <mxCell id="ZGs6x3_PHytGy2VI0v85-2" value="&lt;div&gt;&lt;span style=&quot;background-color: initial;&quot;&gt;+ PlayerCharacterMesh&amp;nbsp;&lt;/span&gt;&lt;span style=&quot;background-color: initial;&quot;&gt;USkeletalMeshComponent*&lt;/span&gt;&lt;span style=&quot;background-color: initial;&quot;&gt;&amp;nbsp;&lt;/span&gt;&lt;/div&gt;&lt;div&gt;&lt;span style=&quot;background-color: initial;&quot;&gt;+ PlayerController&amp;nbsp;&lt;/span&gt;&lt;span style=&quot;background-color: initial;&quot;&gt;APlayerController*&lt;/span&gt;&lt;span style=&quot;background-color: initial;&quot;&gt;&amp;nbsp;&lt;/span&gt;&lt;/div&gt;&lt;div&gt;+ PhysicsHandle&amp;nbsp;&lt;span style=&quot;background-color: initial;&quot;&gt;UPhysicsHandleComponent*&lt;/span&gt;&lt;span style=&quot;background-color: initial;&quot;&gt;&amp;nbsp;&lt;/span&gt;&lt;/div&gt;&lt;div&gt;+ PrimaryCameraComponent&amp;nbsp;&lt;span style=&quot;background-color: initial;&quot;&gt;UCameraComponent*&lt;/span&gt;&lt;span style=&quot;background-color: initial;&quot;&gt;&amp;nbsp;&lt;/span&gt;&lt;/div&gt;&lt;div&gt;+ SecondCameraComponent&amp;nbsp;&lt;span style=&quot;background-color: initial;&quot;&gt;UCameraComponent*&lt;/span&gt;&lt;span style=&quot;background-color: initial;&quot;&gt;&amp;nbsp;&lt;/span&gt;&lt;/div&gt;&lt;div&gt;+ SecondSpringArm&amp;nbsp;&lt;span style=&quot;background-color: initial;&quot;&gt;USpringArmComponent*&lt;/span&gt;&lt;span style=&quot;background-color: initial;&quot;&gt;&amp;nbsp;&lt;/span&gt;&lt;/div&gt;&lt;div&gt;+ SecondSpringArmDistance float&lt;/div&gt;&lt;div&gt;+ SideViewIntSpeed float&lt;/div&gt;&lt;div&gt;+ SideViewRotation FRotator&lt;/div&gt;&lt;div&gt;+ SideViewSpringArmDistance float&lt;/div&gt;&lt;div&gt;+ SpringArmStartRotation FRotator&lt;/div&gt;&lt;div&gt;+ StartSpringArmDistance float&lt;/div&gt;&lt;span style=&quot;background-color: initial;&quot;&gt;+ bHasWeapon bool&lt;/span&gt;&lt;div&gt;+ USpringArmComponent CameraSpringArm&lt;/div&gt;&lt;div&gt;+ Max_Ammo float&lt;/div&gt;&lt;div&gt;+ CurrentAmmo float&lt;/div&gt;&lt;div&gt;+ Min_Ammo float&lt;/div&gt;&lt;div&gt;&lt;div&gt;+ Max_Vials float&lt;/div&gt;&lt;div&gt;+ CurrentVials float&lt;/div&gt;&lt;/div&gt;&lt;div&gt;+ Min_Vials float&lt;/div&gt;&lt;div&gt;+ Delay float&lt;/div&gt;&lt;div&gt;+ MaxHealth float&lt;/div&gt;&lt;div&gt;+ Health float&lt;/div&gt;&lt;div&gt;+ RespawnDelay float&lt;/div&gt;&lt;div&gt;# RespawnTimerHandle&amp;nbsp;&lt;span style=&quot;background-color: initial;&quot;&gt;FTimerHandle&lt;/span&gt;&lt;/div&gt;&lt;div&gt;+ TimerHandle&amp;nbsp;&lt;span style=&quot;background-color: initial;&quot;&gt;FTimerHandle&lt;/span&gt;&lt;span style=&quot;background-color: initial;&quot;&gt;&amp;nbsp;&lt;/span&gt;&lt;/div&gt;&lt;div&gt;&lt;br&gt;&lt;/div&gt;&lt;div&gt;+ TraceObject&amp;nbsp;&lt;span style=&quot;background-color: initial;&quot;&gt;TEnumAsByte&amp;lt;ECollisionChannel&amp;gt;&lt;/span&gt;&lt;/div&gt;&lt;div&gt;+ Hit&amp;nbsp;&lt;span style=&quot;background-color: initial;&quot;&gt;FHitResult&lt;/span&gt;&lt;span style=&quot;background-color: initial;&quot;&gt;&amp;nbsp;&lt;/span&gt;&lt;/div&gt;&lt;div&gt;+ TraceDistance&amp;nbsp;&lt;span style=&quot;background-color: initial;&quot;&gt;float&lt;/span&gt;&lt;span style=&quot;background-color: initial;&quot;&gt;&amp;nbsp;&lt;/span&gt;&lt;/div&gt;&lt;div&gt;+ TraceStart&amp;nbsp;&lt;span style=&quot;background-color: initial;&quot;&gt;FVector&lt;/span&gt;&lt;span style=&quot;background-color: initial;&quot;&gt;&amp;nbsp;&lt;/span&gt;&lt;/div&gt;&lt;div&gt;+ TraceEnd&amp;nbsp;&lt;span style=&quot;background-color: initial;&quot;&gt;FVector&lt;/span&gt;&lt;span style=&quot;background-color: initial;&quot;&gt;&amp;nbsp;&lt;/span&gt;&lt;/div&gt;&lt;div&gt;+ QueryParams&amp;nbsp;&lt;span style=&quot;background-color: initial;&quot;&gt;FCollisionQueryParams&lt;/span&gt;&lt;span style=&quot;background-color: initial;&quot;&gt;&amp;nbsp;&lt;/span&gt;&lt;/div&gt;&lt;div&gt;&lt;br&gt;&lt;/div&gt;&lt;div&gt;+ Subsystem U&lt;span style=&quot;background-color: initial;&quot;&gt;EnhancedInputLocalPlayerSubsystem*&lt;/span&gt;&lt;span style=&quot;background-color: initial;&quot;&gt;&amp;nbsp;&lt;/span&gt;&lt;/div&gt;&lt;div&gt;+ IMC&amp;nbsp;&lt;span style=&quot;background-color: initial;&quot;&gt;UInputMappingContext*&lt;/span&gt;&lt;span style=&quot;background-color: initial;&quot;&gt;&amp;nbsp;&lt;/span&gt;&lt;/div&gt;&lt;div&gt;+ IMC_Terrarium&lt;span style=&quot;background-color: initial;&quot;&gt;&amp;nbsp;&lt;/span&gt;&lt;span style=&quot;background-color: initial;&quot;&gt;UInputMappingContext*&lt;/span&gt;&lt;span style=&quot;background-color: initial;&quot;&gt;&amp;nbsp;&lt;/span&gt;&lt;/div&gt;&lt;div&gt;+ IsGrabbing&amp;nbsp;&lt;span style=&quot;background-color: initial;&quot;&gt;bool&lt;/span&gt;&lt;span style=&quot;background-color: initial;&quot;&gt;&amp;nbsp;&lt;/span&gt;&lt;/div&gt;&lt;div&gt;+ IsPushable&amp;nbsp;&lt;span style=&quot;background-color: initial;&quot;&gt;bool&lt;/span&gt;&lt;span style=&quot;background-color: initial;&quot;&gt;&amp;nbsp;&lt;/span&gt;&lt;/div&gt;&lt;div&gt;+ Jump&amp;nbsp;&lt;span style=&quot;background-color: initial;&quot;&gt;UInputAction*&lt;/span&gt;&lt;span style=&quot;background-color: initial;&quot;&gt;&amp;nbsp;&lt;/span&gt;&lt;/div&gt;&lt;div&gt;+ MoveAction&amp;nbsp;&lt;span style=&quot;background-color: initial;&quot;&gt;UInputAction*&lt;/span&gt;&lt;span style=&quot;background-color: initial;&quot;&gt;&amp;nbsp;&lt;/span&gt;&lt;/div&gt;&lt;div&gt;+ PushObject&amp;nbsp;&lt;span style=&quot;background-color: initial;&quot;&gt;UInputAction*&lt;/span&gt;&lt;span style=&quot;background-color: initial;&quot;&gt;&amp;nbsp;&lt;/span&gt;&lt;/div&gt;&lt;div&gt;+ LoadObject&amp;nbsp;&lt;span style=&quot;background-color: initial;&quot;&gt;USaveGame*&lt;/span&gt;&lt;span style=&quot;background-color: initial;&quot;&gt;&amp;nbsp;&lt;/span&gt;&lt;/div&gt;&lt;div&gt;+ SaveObject&amp;nbsp;&lt;span style=&quot;background-color: initial;&quot;&gt;UMainSaveGame*&lt;/span&gt;&lt;span style=&quot;background-color: initial;&quot;&gt;&amp;nbsp;&lt;/span&gt;&lt;/div&gt;&lt;div&gt;+ LookAction&lt;span style=&quot;background-color: initial;&quot;&gt;&amp;nbsp;&lt;/span&gt;&lt;span style=&quot;background-color: initial;&quot;&gt;UInputAction*&lt;/span&gt;&lt;span style=&quot;background-color: initial;&quot;&gt;&amp;nbsp;&lt;/span&gt;&lt;/div&gt;&lt;div&gt;&lt;br&gt;&lt;/div&gt;" style="text;strokeColor=none;fillColor=none;align=left;verticalAlign=top;spacingLeft=4;spacingRight=4;overflow=hidden;rotatable=0;points=[[0,0.5],[1,0.5]];portConstraint=eastwest;whiteSpace=wrap;html=1;" parent="ZGs6x3_PHytGy2VI0v85-1" vertex="1">
          <mxGeometry y="26" width="330" height="674" as="geometry" />
        </mxCell>
        <mxCell id="ZGs6x3_PHytGy2VI0v85-3" value="" style="line;strokeWidth=1;fillColor=none;align=left;verticalAlign=middle;spacingTop=-1;spacingLeft=3;spacingRight=3;rotatable=0;labelPosition=right;points=[];portConstraint=eastwest;strokeColor=inherit;" parent="ZGs6x3_PHytGy2VI0v85-1" vertex="1">
          <mxGeometry y="700" width="330" height="8" as="geometry" />
        </mxCell>
        <mxCell id="ZGs6x3_PHytGy2VI0v85-4" value="&lt;div&gt;+ APlayerCharacter()&lt;/div&gt;&lt;div&gt;# void BeginPlay()&lt;/div&gt;&lt;div&gt;&lt;br&gt;&lt;/div&gt;&lt;div&gt;# Die()&amp;nbsp;&lt;span style=&quot;background-color: initial;&quot;&gt;void&lt;/span&gt;&lt;span style=&quot;background-color: initial;&quot;&gt;&amp;nbsp;&lt;/span&gt;&lt;/div&gt;&lt;div&gt;# TakeDamage()&amp;nbsp;&lt;span style=&quot;background-color: initial;&quot;&gt;float&lt;/span&gt;&lt;span style=&quot;background-color: initial;&quot;&gt;&amp;nbsp;&lt;/span&gt;&lt;/div&gt;&lt;div&gt;# GetAmmo()&amp;nbsp;&lt;span style=&quot;background-color: initial;&quot;&gt;void&lt;/span&gt;&lt;span style=&quot;background-color: initial;&quot;&gt;&amp;nbsp;&lt;/span&gt;&lt;/div&gt;&lt;div&gt;&lt;span style=&quot;background-color: initial;&quot;&gt;+ SetCurrentAmmo(float) void&lt;/span&gt;&lt;/div&gt;&lt;div&gt;&lt;span style=&quot;background-color: initial;&quot;&gt;+ GetCurrentAmmo() float&lt;/span&gt;&lt;/div&gt;&lt;div&gt;+ GetHasWeapon()&amp;nbsp;&lt;span style=&quot;background-color: initial;&quot;&gt;bool&lt;/span&gt;&lt;span style=&quot;background-color: initial;&quot;&gt;&amp;nbsp;&lt;/span&gt;&lt;/div&gt;&lt;div&gt;+ SetHasWeapon(bool)&amp;nbsp;&lt;span style=&quot;background-color: initial;&quot;&gt;void&lt;/span&gt;&lt;span style=&quot;background-color: initial;&quot;&gt;&amp;nbsp;&lt;/span&gt;&lt;/div&gt;&lt;div&gt;+ GetMeshPlayerCharacter()&amp;nbsp;&lt;span style=&quot;background-color: initial;&quot;&gt;USkeletalMeshComponent*&lt;/span&gt;&lt;span style=&quot;background-color: initial;&quot;&gt;&amp;nbsp;&lt;/span&gt;&lt;/div&gt;&lt;div&gt;+ GetPrimaryCameraCOmponent()&amp;nbsp;&lt;span style=&quot;background-color: initial;&quot;&gt;UCameraComponent*&lt;/span&gt;&lt;span style=&quot;background-color: initial;&quot;&gt;&amp;nbsp;&lt;/span&gt;&lt;/div&gt;&lt;div&gt;# GetVials()&amp;nbsp;&lt;span style=&quot;background-color: initial;&quot;&gt;void&lt;/span&gt;&lt;span style=&quot;background-color: initial;&quot;&gt;&amp;nbsp;&lt;/span&gt;&lt;/div&gt;&lt;div&gt;+ Grab()&amp;nbsp;&lt;span style=&quot;background-color: initial;&quot;&gt;void&lt;/span&gt;&lt;span style=&quot;background-color: initial;&quot;&gt;&amp;nbsp;&lt;/span&gt;&lt;/div&gt;&lt;div&gt;+ Push()&amp;nbsp;&lt;span style=&quot;background-color: initial;&quot;&gt;void&lt;/span&gt;&lt;span style=&quot;background-color: initial;&quot;&gt;&amp;nbsp;&lt;/span&gt;&lt;/div&gt;&lt;div&gt;# Heal()&amp;nbsp;&lt;span style=&quot;background-color: initial;&quot;&gt;void&lt;/span&gt;&lt;span style=&quot;background-color: initial;&quot;&gt;&amp;nbsp;&lt;/span&gt;&lt;/div&gt;&lt;div&gt;+ JumpPad()&amp;nbsp;&lt;span style=&quot;background-color: initial;&quot;&gt;void&lt;/span&gt;&lt;span style=&quot;background-color: initial;&quot;&gt;&amp;nbsp;&lt;/span&gt;&lt;/div&gt;&lt;div&gt;+ LineTrace(float, TEnumAsByte&amp;lt;ECollisionChannel&amp;gt;)&amp;nbsp;&lt;span style=&quot;background-color: initial;&quot;&gt;void&lt;/span&gt;&lt;span style=&quot;background-color: initial;&quot;&gt;&amp;nbsp;&lt;/span&gt;&lt;/div&gt;&lt;div&gt;+ Load()&amp;nbsp;&lt;span style=&quot;background-color: initial;&quot;&gt;void&lt;/span&gt;&lt;span style=&quot;background-color: initial;&quot;&gt;&amp;nbsp;&lt;/span&gt;&lt;/div&gt;&lt;div&gt;+ Save()&amp;nbsp;&lt;span style=&quot;background-color: initial;&quot;&gt;void&lt;/span&gt;&lt;span style=&quot;background-color: initial;&quot;&gt;&amp;nbsp;&lt;/span&gt;&lt;/div&gt;&lt;div&gt;&lt;br&gt;&lt;/div&gt;&lt;div&gt;+ SetupPlayerInputComponent()&amp;nbsp;&lt;span style=&quot;background-color: initial;&quot;&gt;void&lt;/span&gt;&lt;/div&gt;&lt;div&gt;+ LookAround(FInputActionValue&amp;amp;)&amp;nbsp;&lt;span style=&quot;background-color: initial;&quot;&gt;void&lt;/span&gt;&lt;span style=&quot;background-color: initial;&quot;&gt;&amp;nbsp;&lt;/span&gt;&lt;/div&gt;&lt;div&gt;+ Move(FInputActionValue&amp;amp;)&amp;nbsp;&lt;span style=&quot;background-color: initial;&quot;&gt;void&lt;/span&gt;&lt;span style=&quot;background-color: initial;&quot;&gt;&amp;nbsp;&amp;nbsp;&lt;/span&gt;&lt;/div&gt;&lt;div&gt;&lt;span style=&quot;background-color: initial;&quot;&gt;+ MoveTerrarium(&lt;/span&gt;&lt;span style=&quot;background-color: initial;&quot;&gt;FInputActionValue&amp;amp;) void&lt;/span&gt;&lt;/div&gt;&lt;div&gt;+ PushableObject()&amp;nbsp;&lt;span style=&quot;background-color: initial;&quot;&gt;void&lt;/span&gt;&lt;span style=&quot;background-color: initial;&quot;&gt;&amp;nbsp;&lt;/span&gt;&lt;/div&gt;&lt;div&gt;+ ReleaseGrabbedObject()&amp;nbsp;&lt;span style=&quot;background-color: initial;&quot;&gt;void&lt;/span&gt;&lt;span style=&quot;background-color: initial;&quot;&gt;&amp;nbsp;&lt;/span&gt;&lt;/div&gt;&lt;div&gt;# Respawn()&amp;nbsp;&lt;span style=&quot;background-color: initial;&quot;&gt;void&lt;/span&gt;&lt;span style=&quot;background-color: initial;&quot;&gt;&amp;nbsp;&lt;/span&gt;&lt;/div&gt;&lt;div&gt;+ RunOnTagEndOverlap()&amp;nbsp;&lt;span style=&quot;background-color: initial;&quot;&gt;void&lt;/span&gt;&lt;span style=&quot;background-color: initial;&quot;&gt;&amp;nbsp;&lt;/span&gt;&lt;/div&gt;&lt;div&gt;+ RunOnTagOverlap()&amp;nbsp;&lt;span style=&quot;background-color: initial;&quot;&gt;void&lt;/span&gt;&lt;span style=&quot;background-color: initial;&quot;&gt;&amp;nbsp;&lt;/span&gt;&lt;/div&gt;&lt;div&gt;+ SwitchToDefaultImc()&amp;nbsp;&lt;span style=&quot;background-color: initial;&quot;&gt;void&lt;/span&gt;&lt;span style=&quot;background-color: initial;&quot;&gt;&amp;nbsp;&lt;/span&gt;&lt;/div&gt;&lt;div&gt;+ SwitchToTerrariumImc()&amp;nbsp;&lt;span style=&quot;background-color: initial;&quot;&gt;void&lt;/span&gt;&lt;span style=&quot;background-color: initial;&quot;&gt;&amp;nbsp;&lt;/span&gt;&lt;/div&gt;&lt;div&gt;+ Tick()&amp;nbsp;&lt;span style=&quot;background-color: initial;&quot;&gt;void&lt;/span&gt;&lt;span style=&quot;background-color: initial;&quot;&gt;&amp;nbsp;&lt;/span&gt;&lt;/div&gt;" style="text;strokeColor=none;fillColor=none;align=left;verticalAlign=top;spacingLeft=4;spacingRight=4;overflow=hidden;rotatable=0;points=[[0,0.5],[1,0.5]];portConstraint=eastwest;whiteSpace=wrap;html=1;" parent="ZGs6x3_PHytGy2VI0v85-1" vertex="1">
          <mxGeometry y="708" width="330" height="522" as="geometry" />
        </mxCell>
        <mxCell id="EcpB4iICE6naHUnbvn0D-1" value="BP_Ant" style="swimlane;fontStyle=1;align=center;verticalAlign=top;childLayout=stackLayout;horizontal=1;startSize=26;horizontalStack=0;resizeParent=1;resizeParentMax=0;resizeLast=0;collapsible=1;marginBottom=0;whiteSpace=wrap;html=1;" vertex="1" parent="1">
          <mxGeometry x="1050" y="560" width="310" height="730" as="geometry" />
        </mxCell>
        <mxCell id="EcpB4iICE6naHUnbvn0D-2" value="&lt;div&gt;&lt;span style=&quot;background-color: initial;&quot;&gt;+/- CharacterMesh0 USkeletalMeshComponent*&amp;nbsp; BP&lt;/span&gt;&lt;/div&gt;&lt;div&gt;&lt;span style=&quot;background-color: initial;&quot;&gt;+/-&amp;nbsp; AntController AIController*&amp;nbsp; BP&lt;/span&gt;&lt;/div&gt;&lt;div&gt;&lt;div&gt;- Target: AntController&amp;nbsp; BP&lt;/div&gt;&lt;div&gt;+ RandomLocation: vector&amp;nbsp; BP&lt;/div&gt;&lt;/div&gt;&lt;div&gt;+/- NewWalkSpeed: float BP&lt;/div&gt;&lt;div&gt;+/- CollisionCylinder: UCapsuleComponent*&amp;nbsp; BP&lt;/div&gt;&lt;div&gt;+/- AntHitbox: USphereComponent*&amp;nbsp; BP&lt;span style=&quot;background-color: initial;&quot;&gt;&lt;br&gt;&lt;/span&gt;&lt;/div&gt;&lt;div&gt;+/- AntCollision: UCapsuleComponent*&amp;nbsp; BP&lt;br&gt;&lt;/div&gt;&lt;div&gt;+/- HeadCollision: USphereComponent*&amp;nbsp; BP&lt;br&gt;&lt;/div&gt;&lt;div&gt;+/- HealthBar: UWidgetComponent* BP&lt;/div&gt;&lt;div&gt;+/- CharMoveComp: UCharacterMovementComponent* BP&amp;nbsp;&lt;/div&gt;&lt;div&gt;&lt;br&gt;&lt;/div&gt;&lt;div&gt;&lt;span style=&quot;background-color: initial;&quot;&gt;+ Health: float&lt;/span&gt;&lt;br&gt;&lt;/div&gt;&lt;div&gt;+ Max&lt;span style=&quot;background-color: initial;&quot;&gt;Health: float&lt;/span&gt;&lt;/div&gt;&lt;div&gt;&lt;br&gt;&lt;/div&gt;&lt;div&gt;+EnemyIsDead: bool&lt;/div&gt;&lt;div&gt;+ bCanDrop: bool&lt;/div&gt;&lt;div&gt;&lt;br&gt;&lt;/div&gt;&lt;div&gt;&lt;span style=&quot;background-color: initial;&quot;&gt;+ SpawnInfo: FActorSpawnParameters&lt;/span&gt;&lt;br&gt;&lt;/div&gt;&lt;div&gt;&lt;span style=&quot;background-color: initial;&quot;&gt;+ HealthPickUp: TSubclassOf&amp;lt;AActor&amp;gt;&amp;nbsp;&lt;/span&gt;&lt;br&gt;&lt;/div&gt;&lt;div&gt;&lt;span style=&quot;background-color: initial;&quot;&gt;&lt;br&gt;&lt;/span&gt;&lt;/div&gt;&lt;div&gt;&lt;br&gt;&lt;/div&gt;" style="text;strokeColor=none;fillColor=none;align=left;verticalAlign=top;spacingLeft=4;spacingRight=4;overflow=hidden;rotatable=0;points=[[0,0.5],[1,0.5]];portConstraint=eastwest;whiteSpace=wrap;html=1;" vertex="1" parent="EcpB4iICE6naHUnbvn0D-1">
          <mxGeometry y="26" width="310" height="314" as="geometry" />
        </mxCell>
        <mxCell id="EcpB4iICE6naHUnbvn0D-3" value="" style="line;strokeWidth=1;fillColor=none;align=left;verticalAlign=middle;spacingTop=-1;spacingLeft=3;spacingRight=3;rotatable=0;labelPosition=right;points=[];portConstraint=eastwest;strokeColor=inherit;" vertex="1" parent="EcpB4iICE6naHUnbvn0D-1">
          <mxGeometry y="340" width="310" height="28" as="geometry" />
        </mxCell>
        <mxCell id="EcpB4iICE6naHUnbvn0D-4" value="&lt;div&gt;&lt;span style=&quot;background-color: initial;&quot;&gt;# BeginPlay(): void&lt;/span&gt;&lt;/div&gt;&lt;div&gt;+ Die(): void&lt;/div&gt;&lt;div&gt;+ TakeDamage( float, FDamageEvent const&amp;amp;, AController*,&amp;nbsp; AActor*): float&lt;/div&gt;&lt;div&gt;+ SetupPlayerInputComponent(UInputComponent*): void&lt;/div&gt;&lt;div&gt;+ Tick(float): void&lt;/div&gt;&lt;div&gt;&lt;br&gt;&lt;/div&gt;&lt;div&gt;+/- UpdateWalkSpeed(float): void&amp;nbsp; &amp;nbsp; BP&amp;nbsp;&lt;/div&gt;&lt;div&gt;+/- GetUserWidgetObject( UWidgetComponent): UWidgetComponent BP&lt;/div&gt;&lt;div&gt;+/- SetAntHealthBarOwner(UWidgetComponent): void&amp;nbsp; BP&lt;/div&gt;&lt;div&gt;&lt;div&gt;+/- SetMaxWalkSpeed(float, UCharacterMovementComponent): void&amp;nbsp; &amp;nbsp; BP&amp;nbsp;&lt;/div&gt;&lt;/div&gt;&lt;div&gt;&lt;br&gt;&lt;/div&gt;&lt;div&gt;+/- DisableMovement(&lt;span style=&quot;background-color: initial;&quot;&gt;UCharacterMovementComponent): void BP&lt;/span&gt;&lt;/div&gt;&lt;div&gt;&lt;span style=&quot;background-color: initial;&quot;&gt;+/- PlayAnimation(USkeletalMeshComponent): UAnimationAsset&amp;nbsp; BP&lt;/span&gt;&lt;/div&gt;&lt;div&gt;&lt;span style=&quot;background-color: initial;&quot;&gt;+/- Delay(): void BP&lt;/span&gt;&lt;/div&gt;&lt;div&gt;+/- DelayUntilNextTick(): void&amp;nbsp; BP&lt;span style=&quot;background-color: initial;&quot;&gt;&lt;br&gt;&lt;/span&gt;&lt;/div&gt;&lt;div&gt;+/- DestroyActor(AActor*): void&amp;nbsp; BP&lt;/div&gt;&lt;div&gt;&lt;span style=&quot;background-color: initial;&quot;&gt;&lt;br&gt;&lt;/span&gt;&lt;/div&gt;" style="text;strokeColor=none;fillColor=none;align=left;verticalAlign=top;spacingLeft=4;spacingRight=4;overflow=hidden;rotatable=0;points=[[0,0.5],[1,0.5]];portConstraint=eastwest;whiteSpace=wrap;html=1;" vertex="1" parent="EcpB4iICE6naHUnbvn0D-1">
          <mxGeometry y="368" width="310" height="362" as="geometry" />
        </mxCell>
        <mxCell id="EcpB4iICE6naHUnbvn0D-13" value="" style="endArrow=classic;html=1;rounded=0;exitX=0.278;exitY=0.003;exitDx=0;exitDy=0;entryX=0.714;entryY=1.013;entryDx=0;entryDy=0;entryPerimeter=0;exitPerimeter=0;" edge="1" parent="1" target="J19v4T6y1fvecI04w9pI-4">
          <mxGeometry width="50" height="50" relative="1" as="geometry">
            <mxPoint x="1466.18" y="561.3199999999999" as="sourcePoint" />
            <mxPoint x="1460" y="790" as="targetPoint" />
            <Array as="points">
              <mxPoint x="1466" y="530" />
            </Array>
          </mxGeometry>
        </mxCell>
        <mxCell id="EcpB4iICE6naHUnbvn0D-14" value="" style="endArrow=classic;html=1;rounded=0;entryX=0.081;entryY=0.998;entryDx=0;entryDy=0;entryPerimeter=0;" edge="1" parent="1" target="J19v4T6y1fvecI04w9pI-4">
          <mxGeometry width="50" height="50" relative="1" as="geometry">
            <mxPoint x="1257" y="560" as="sourcePoint" />
            <mxPoint x="1530" y="630" as="targetPoint" />
          </mxGeometry>
        </mxCell>
        <mxCell id="EcpB4iICE6naHUnbvn0D-15" value="BP_Hornet" style="swimlane;fontStyle=1;align=center;verticalAlign=top;childLayout=stackLayout;horizontal=1;startSize=26;horizontalStack=0;resizeParent=1;resizeParentMax=0;resizeLast=0;collapsible=1;marginBottom=0;whiteSpace=wrap;html=1;" vertex="1" parent="1">
          <mxGeometry x="1380" y="560" width="310" height="730" as="geometry" />
        </mxCell>
        <mxCell id="EcpB4iICE6naHUnbvn0D-16" value="&lt;div&gt;&lt;span style=&quot;background-color: initial;&quot;&gt;+/- CharacterMesh0 USkeletalMeshComponent*&amp;nbsp; BP&lt;/span&gt;&lt;/div&gt;&lt;div&gt;&lt;span style=&quot;background-color: initial;&quot;&gt;+/-&amp;nbsp; HornetController AIController*&amp;nbsp; BP&lt;/span&gt;&lt;/div&gt;&lt;div&gt;&lt;div&gt;- Target: HornetController&amp;nbsp; BP&lt;/div&gt;&lt;div&gt;+ RandomLocation: vector&amp;nbsp; BP&lt;/div&gt;&lt;/div&gt;&lt;div&gt;+/- NewWalkSpeed: float BP&lt;/div&gt;&lt;div&gt;+/- CollisionCylinder: UCapsuleComponent*&amp;nbsp; BP&lt;/div&gt;&lt;div&gt;+/- HornetHitbox: USphereComponent*&amp;nbsp; BP&lt;span style=&quot;background-color: initial;&quot;&gt;&lt;br&gt;&lt;/span&gt;&lt;/div&gt;&lt;div&gt;+/- HornetCollision: UCapsuleComponent*&amp;nbsp; BP&lt;br&gt;&lt;/div&gt;&lt;div&gt;+/- HeadCollision: USphereComponent*&amp;nbsp; BP&lt;br&gt;&lt;/div&gt;&lt;div&gt;+/- HealthBar: UWidgetComponent* BP&lt;/div&gt;&lt;div&gt;+/- CharMoveComp: UCharacterMovementComponent* BP&amp;nbsp;&lt;/div&gt;&lt;div&gt;&lt;br&gt;&lt;/div&gt;&lt;div&gt;&lt;span style=&quot;background-color: initial;&quot;&gt;+ Health: float&lt;/span&gt;&lt;br&gt;&lt;/div&gt;&lt;div&gt;+ Max&lt;span style=&quot;background-color: initial;&quot;&gt;Health: float&lt;/span&gt;&lt;/div&gt;&lt;div&gt;&lt;br&gt;&lt;/div&gt;&lt;div&gt;+EnemyIsDead: bool&lt;/div&gt;&lt;div&gt;+ bCanDrop: bool&lt;/div&gt;&lt;div&gt;&lt;br&gt;&lt;/div&gt;&lt;div&gt;&lt;span style=&quot;background-color: initial;&quot;&gt;+ SpawnInfo: FActorSpawnParameters&lt;/span&gt;&lt;br&gt;&lt;/div&gt;&lt;div&gt;&lt;span style=&quot;background-color: initial;&quot;&gt;+ HealthPickUp: TSubclassOf&amp;lt;AActor&amp;gt;&amp;nbsp;&lt;/span&gt;&lt;br&gt;&lt;/div&gt;&lt;div&gt;&lt;span style=&quot;background-color: initial;&quot;&gt;&lt;br&gt;&lt;/span&gt;&lt;/div&gt;&lt;div&gt;&lt;br&gt;&lt;/div&gt;" style="text;strokeColor=none;fillColor=none;align=left;verticalAlign=top;spacingLeft=4;spacingRight=4;overflow=hidden;rotatable=0;points=[[0,0.5],[1,0.5]];portConstraint=eastwest;whiteSpace=wrap;html=1;" vertex="1" parent="EcpB4iICE6naHUnbvn0D-15">
          <mxGeometry y="26" width="310" height="314" as="geometry" />
        </mxCell>
        <mxCell id="EcpB4iICE6naHUnbvn0D-17" value="" style="line;strokeWidth=1;fillColor=none;align=left;verticalAlign=middle;spacingTop=-1;spacingLeft=3;spacingRight=3;rotatable=0;labelPosition=right;points=[];portConstraint=eastwest;strokeColor=inherit;" vertex="1" parent="EcpB4iICE6naHUnbvn0D-15">
          <mxGeometry y="340" width="310" height="28" as="geometry" />
        </mxCell>
        <mxCell id="EcpB4iICE6naHUnbvn0D-18" value="&lt;div&gt;&lt;span style=&quot;background-color: initial;&quot;&gt;# BeginPlay(): void&lt;/span&gt;&lt;/div&gt;&lt;div&gt;+ Die(): void&lt;/div&gt;&lt;div&gt;+ TakeDamage( float, FDamageEvent const&amp;amp;, AController*,&amp;nbsp; AActor*): float&lt;/div&gt;&lt;div&gt;+ SetupPlayerInputComponent(UInputComponent*): void&lt;/div&gt;&lt;div&gt;+ Tick(float): void&lt;/div&gt;&lt;div&gt;&lt;br&gt;&lt;/div&gt;&lt;div&gt;+/- UpdateWalkSpeed(float): void&amp;nbsp; &amp;nbsp; BP&amp;nbsp;&lt;/div&gt;&lt;div&gt;+/- GetUserWidgetObject( UWidgetComponent): UWidgetComponent BP&lt;/div&gt;&lt;div&gt;+/- SetHornetHealthBarOwner(UWidgetComponent): void&amp;nbsp; BP&lt;/div&gt;&lt;div&gt;&lt;div&gt;+/- SetMaxWalkSpeed(float, UCharacterMovementComponent): void&amp;nbsp; &amp;nbsp; BP&amp;nbsp;&lt;/div&gt;&lt;/div&gt;&lt;div&gt;&lt;br&gt;&lt;/div&gt;&lt;div&gt;+/- DisableMovement(&lt;span style=&quot;background-color: initial;&quot;&gt;UCharacterMovementComponent): void BP&lt;/span&gt;&lt;/div&gt;&lt;div&gt;&lt;span style=&quot;background-color: initial;&quot;&gt;+/- PlayAnimation(USkeletalMeshComponent): UAnimationAsset&amp;nbsp; BP&lt;/span&gt;&lt;/div&gt;&lt;div&gt;&lt;span style=&quot;background-color: initial;&quot;&gt;+/- Delay(): void BP&lt;/span&gt;&lt;/div&gt;&lt;div&gt;+/- DelayUntilNextTick(): void&amp;nbsp; BP&lt;span style=&quot;background-color: initial;&quot;&gt;&lt;br&gt;&lt;/span&gt;&lt;/div&gt;&lt;div&gt;+/- DestroyActor(AActor*): void&amp;nbsp; BP&lt;/div&gt;&lt;div&gt;&lt;span style=&quot;background-color: initial;&quot;&gt;&lt;br&gt;&lt;/span&gt;&lt;/div&gt;" style="text;strokeColor=none;fillColor=none;align=left;verticalAlign=top;spacingLeft=4;spacingRight=4;overflow=hidden;rotatable=0;points=[[0,0.5],[1,0.5]];portConstraint=eastwest;whiteSpace=wrap;html=1;" vertex="1" parent="EcpB4iICE6naHUnbvn0D-15">
          <mxGeometry y="368" width="310" height="362" as="geometry" />
        </mxCell>
        <mxCell id="EcpB4iICE6naHUnbvn0D-19" value="" style="endArrow=classic;html=1;rounded=0;entryX=1;entryY=0.5;entryDx=0;entryDy=0;" edge="1" parent="1" target="EcpB4iICE6naHUnbvn0D-21">
          <mxGeometry width="50" height="50" relative="1" as="geometry">
            <mxPoint x="1539" y="1470" as="sourcePoint" />
            <mxPoint x="1530" y="1410" as="targetPoint" />
            <Array as="points">
              <mxPoint x="1539" y="1390" />
            </Array>
          </mxGeometry>
        </mxCell>
        <mxCell id="EcpB4iICE6naHUnbvn0D-20" value="" style="endArrow=classic;html=1;rounded=0;entryX=0;entryY=0.5;entryDx=0;entryDy=0;" edge="1" parent="1" target="EcpB4iICE6naHUnbvn0D-21">
          <mxGeometry width="50" height="50" relative="1" as="geometry">
            <mxPoint x="1200" y="1470" as="sourcePoint" />
            <mxPoint x="1150" y="1430" as="targetPoint" />
            <Array as="points">
              <mxPoint x="1200" y="1390" />
            </Array>
          </mxGeometry>
        </mxCell>
        <mxCell id="EcpB4iICE6naHUnbvn0D-21" value="UWidgetComponent" style="rounded=0;whiteSpace=wrap;html=1;" vertex="1" parent="1">
          <mxGeometry x="1310" y="1360" width="120" height="60" as="geometry" />
        </mxCell>
        <mxCell id="EcpB4iICE6naHUnbvn0D-22" value="Ant_HealthBar&amp;nbsp; BP" style="swimlane;fontStyle=1;align=center;verticalAlign=top;childLayout=stackLayout;horizontal=1;startSize=26;horizontalStack=0;resizeParent=1;resizeParentMax=0;resizeLast=0;collapsible=1;marginBottom=0;whiteSpace=wrap;html=1;" vertex="1" parent="1">
          <mxGeometry x="1040" y="1470" width="270" height="130" as="geometry" />
        </mxCell>
        <mxCell id="EcpB4iICE6naHUnbvn0D-23" value="&lt;div&gt;&lt;span style=&quot;background-color: initial;&quot;&gt;#/- AntHealthBar:&amp;nbsp;&lt;/span&gt;&lt;span style=&quot;background-color: initial;&quot;&gt;UProgressBar*&amp;nbsp; BP&lt;/span&gt;&lt;/div&gt;&lt;div&gt;&lt;span style=&quot;background-color: initial;&quot;&gt;#/- Ant_HealthBarOwner:&amp;nbsp;&lt;/span&gt;&lt;span style=&quot;background-color: initial;&quot;&gt;BP_Ant&amp;nbsp; BP&lt;/span&gt;&lt;/div&gt;&lt;div&gt;&lt;br&gt;&lt;/div&gt;&lt;div&gt;&lt;br&gt;&lt;/div&gt;" style="text;strokeColor=none;fillColor=none;align=left;verticalAlign=top;spacingLeft=4;spacingRight=4;overflow=hidden;rotatable=0;points=[[0,0.5],[1,0.5]];portConstraint=eastwest;whiteSpace=wrap;html=1;" vertex="1" parent="EcpB4iICE6naHUnbvn0D-22">
          <mxGeometry y="26" width="270" height="34" as="geometry" />
        </mxCell>
        <mxCell id="EcpB4iICE6naHUnbvn0D-24" value="" style="line;strokeWidth=1;fillColor=none;align=left;verticalAlign=middle;spacingTop=-1;spacingLeft=3;spacingRight=3;rotatable=0;labelPosition=right;points=[];portConstraint=eastwest;strokeColor=inherit;" vertex="1" parent="EcpB4iICE6naHUnbvn0D-22">
          <mxGeometry y="60" width="270" height="28" as="geometry" />
        </mxCell>
        <mxCell id="EcpB4iICE6naHUnbvn0D-25" value="+ Get_Ant_HealthBar_Percent(float, BP_Ant): float&amp;nbsp; BP" style="text;strokeColor=none;fillColor=none;align=left;verticalAlign=top;spacingLeft=4;spacingRight=4;overflow=hidden;rotatable=0;points=[[0,0.5],[1,0.5]];portConstraint=eastwest;whiteSpace=wrap;html=1;" vertex="1" parent="EcpB4iICE6naHUnbvn0D-22">
          <mxGeometry y="88" width="270" height="42" as="geometry" />
        </mxCell>
        <mxCell id="EcpB4iICE6naHUnbvn0D-26" value="Hornet_HealthBar&amp;nbsp; BP" style="swimlane;fontStyle=1;align=center;verticalAlign=top;childLayout=stackLayout;horizontal=1;startSize=26;horizontalStack=0;resizeParent=1;resizeParentMax=0;resizeLast=0;collapsible=1;marginBottom=0;whiteSpace=wrap;html=1;" vertex="1" parent="1">
          <mxGeometry x="1410" y="1470" width="260" height="130" as="geometry" />
        </mxCell>
        <mxCell id="EcpB4iICE6naHUnbvn0D-27" value="&lt;div&gt;&lt;div&gt;&lt;span style=&quot;background-color: initial;&quot;&gt;#/- HornetHealthBar:&amp;nbsp;&lt;/span&gt;&lt;span style=&quot;background-color: initial;&quot;&gt;UProgressBar*&amp;nbsp; BP&lt;/span&gt;&lt;/div&gt;&lt;div&gt;&lt;span style=&quot;background-color: initial;&quot;&gt;#/- HornetHealthBarOwner:&amp;nbsp;&lt;/span&gt;&lt;span style=&quot;background-color: initial;&quot;&gt;BP_Hornet&amp;nbsp; BP&lt;/span&gt;&lt;/div&gt;&lt;div&gt;&lt;br&gt;&lt;/div&gt;&lt;div&gt;&lt;br&gt;&lt;/div&gt;&lt;/div&gt;" style="text;strokeColor=none;fillColor=none;align=left;verticalAlign=top;spacingLeft=4;spacingRight=4;overflow=hidden;rotatable=0;points=[[0,0.5],[1,0.5]];portConstraint=eastwest;whiteSpace=wrap;html=1;" vertex="1" parent="EcpB4iICE6naHUnbvn0D-26">
          <mxGeometry y="26" width="260" height="34" as="geometry" />
        </mxCell>
        <mxCell id="EcpB4iICE6naHUnbvn0D-28" value="" style="line;strokeWidth=1;fillColor=none;align=left;verticalAlign=middle;spacingTop=-1;spacingLeft=3;spacingRight=3;rotatable=0;labelPosition=right;points=[];portConstraint=eastwest;strokeColor=inherit;" vertex="1" parent="EcpB4iICE6naHUnbvn0D-26">
          <mxGeometry y="60" width="260" height="28" as="geometry" />
        </mxCell>
        <mxCell id="EcpB4iICE6naHUnbvn0D-29" value="+ Get_HornetHealthBar_Percent(float, BP_Hornet): float&amp;nbsp; BP" style="text;strokeColor=none;fillColor=none;align=left;verticalAlign=top;spacingLeft=4;spacingRight=4;overflow=hidden;rotatable=0;points=[[0,0.5],[1,0.5]];portConstraint=eastwest;whiteSpace=wrap;html=1;" vertex="1" parent="EcpB4iICE6naHUnbvn0D-26">
          <mxGeometry y="88" width="260" height="42" as="geometry" />
        </mxCell>
        <mxCell id="EcpB4iICE6naHUnbvn0D-30" value="" style="endArrow=none;html=1;rounded=0;entryX=0.355;entryY=1.002;entryDx=0;entryDy=0;entryPerimeter=0;exitX=0.444;exitY=0.003;exitDx=0;exitDy=0;exitPerimeter=0;" edge="1" parent="1" source="EcpB4iICE6naHUnbvn0D-22" target="EcpB4iICE6naHUnbvn0D-4">
          <mxGeometry width="50" height="50" relative="1" as="geometry">
            <mxPoint x="1150" y="1400" as="sourcePoint" />
            <mxPoint x="1200" y="1350" as="targetPoint" />
          </mxGeometry>
        </mxCell>
        <mxCell id="EcpB4iICE6naHUnbvn0D-31" value="" style="endArrow=none;html=1;rounded=0;entryX=0.593;entryY=1.006;entryDx=0;entryDy=0;entryPerimeter=0;exitX=0.595;exitY=-0.003;exitDx=0;exitDy=0;exitPerimeter=0;" edge="1" parent="1" source="EcpB4iICE6naHUnbvn0D-26" target="EcpB4iICE6naHUnbvn0D-18">
          <mxGeometry width="50" height="50" relative="1" as="geometry">
            <mxPoint x="1530" y="1410" as="sourcePoint" />
            <mxPoint x="1580" y="1360" as="targetPoint" />
          </mxGeometry>
        </mxCell>
        <mxCell id="EcpB4iICE6naHUnbvn0D-32" value="1" style="edgeLabel;html=1;align=center;verticalAlign=middle;resizable=0;points=[];" vertex="1" connectable="0" parent="1">
          <mxGeometry x="1510.0024390998738" y="1000" as="geometry">
            <mxPoint x="62" y="309" as="offset" />
          </mxGeometry>
        </mxCell>
        <mxCell id="EcpB4iICE6naHUnbvn0D-33" value="&lt;span style=&quot;color: rgb(0, 0, 0); font-family: Helvetica; font-size: 11px; font-style: normal; font-variant-ligatures: normal; font-variant-caps: normal; font-weight: 400; letter-spacing: normal; orphans: 2; text-align: center; text-indent: 0px; text-transform: none; widows: 2; word-spacing: 0px; -webkit-text-stroke-width: 0px; white-space: nowrap; background-color: rgb(255, 255, 255); text-decoration-thickness: initial; text-decoration-style: initial; text-decoration-color: initial; display: inline !important; float: none;&quot;&gt;1&lt;/span&gt;" style="text;whiteSpace=wrap;html=1;" vertex="1" parent="1">
          <mxGeometry x="1570" y="1440" width="40" height="40" as="geometry" />
        </mxCell>
        <mxCell id="EcpB4iICE6naHUnbvn0D-34" value="&lt;span style=&quot;color: rgb(0, 0, 0); font-family: Helvetica; font-size: 11px; font-style: normal; font-variant-ligatures: normal; font-variant-caps: normal; font-weight: 400; letter-spacing: normal; orphans: 2; text-align: center; text-indent: 0px; text-transform: none; widows: 2; word-spacing: 0px; -webkit-text-stroke-width: 0px; white-space: nowrap; background-color: rgb(255, 255, 255); text-decoration-thickness: initial; text-decoration-style: initial; text-decoration-color: initial; display: inline !important; float: none;&quot;&gt;1&lt;/span&gt;" style="text;whiteSpace=wrap;html=1;" vertex="1" parent="1">
          <mxGeometry x="1170" y="1290" width="40" height="40" as="geometry" />
        </mxCell>
        <mxCell id="EcpB4iICE6naHUnbvn0D-35" value="&lt;span style=&quot;color: rgb(0, 0, 0); font-family: Helvetica; font-size: 11px; font-style: normal; font-variant-ligatures: normal; font-variant-caps: normal; font-weight: 400; letter-spacing: normal; orphans: 2; text-align: center; text-indent: 0px; text-transform: none; widows: 2; word-spacing: 0px; -webkit-text-stroke-width: 0px; white-space: nowrap; background-color: rgb(255, 255, 255); text-decoration-thickness: initial; text-decoration-style: initial; text-decoration-color: initial; display: inline !important; float: none;&quot;&gt;1&lt;/span&gt;" style="text;whiteSpace=wrap;html=1;" vertex="1" parent="1">
          <mxGeometry x="1170" y="1440" width="40" height="40" as="geometry" />
        </mxCell>
        <mxCell id="EcpB4iICE6naHUnbvn0D-36" value="CharacterHealth" style="swimlane;fontStyle=1;align=center;verticalAlign=top;childLayout=stackLayout;horizontal=1;startSize=26;horizontalStack=0;resizeParent=1;resizeParentMax=0;resizeLast=0;collapsible=1;marginBottom=0;whiteSpace=wrap;html=1;" vertex="1" parent="1">
          <mxGeometry x="1235" y="1640" width="270" height="290" as="geometry" />
        </mxCell>
        <mxCell id="EcpB4iICE6naHUnbvn0D-37" value="&lt;div&gt;&lt;span style=&quot;background-color: initial;&quot;&gt;#/- CanvasPanel: UCanvasPanelSlot* BP&lt;/span&gt;&lt;/div&gt;&lt;div&gt;&lt;span style=&quot;background-color: initial;&quot;&gt;#/- CharacterHealthBar:&amp;nbsp;&lt;/span&gt;&lt;span style=&quot;background-color: initial;&quot;&gt;UProgressBar*&amp;nbsp; BP&lt;/span&gt;&lt;/div&gt;&lt;div&gt;&lt;div&gt;&lt;span style=&quot;background-color: initial;&quot;&gt;#/- AmmoBar:&amp;nbsp;&lt;/span&gt;&lt;span style=&quot;background-color: initial;&quot;&gt;UProgressBar*&amp;nbsp; BP&lt;/span&gt;&lt;/div&gt;&lt;/div&gt;&lt;div&gt;&lt;span style=&quot;background-color: initial;&quot;&gt;#/- VialsBar:&amp;nbsp;&lt;/span&gt;&lt;span style=&quot;background-color: initial;&quot;&gt;UProgressBar*&amp;nbsp; BP&lt;/span&gt;&lt;span style=&quot;background-color: initial;&quot;&gt;&lt;br&gt;&lt;/span&gt;&lt;/div&gt;&lt;div&gt;&lt;span style=&quot;background-color: initial;&quot;&gt;#/- Ant_HealthBarOwner:&amp;nbsp;&lt;/span&gt;&lt;span style=&quot;background-color: initial;&quot;&gt;BP_PlayerCharacter&amp;nbsp; BP&lt;/span&gt;&lt;/div&gt;&lt;div&gt;&lt;br&gt;&lt;/div&gt;&lt;div&gt;&lt;br&gt;&lt;/div&gt;" style="text;strokeColor=none;fillColor=none;align=left;verticalAlign=top;spacingLeft=4;spacingRight=4;overflow=hidden;rotatable=0;points=[[0,0.5],[1,0.5]];portConstraint=eastwest;whiteSpace=wrap;html=1;" vertex="1" parent="EcpB4iICE6naHUnbvn0D-36">
          <mxGeometry y="26" width="270" height="104" as="geometry" />
        </mxCell>
        <mxCell id="EcpB4iICE6naHUnbvn0D-38" value="" style="line;strokeWidth=1;fillColor=none;align=left;verticalAlign=middle;spacingTop=-1;spacingLeft=3;spacingRight=3;rotatable=0;labelPosition=right;points=[];portConstraint=eastwest;strokeColor=inherit;" vertex="1" parent="EcpB4iICE6naHUnbvn0D-36">
          <mxGeometry y="130" width="270" height="28" as="geometry" />
        </mxCell>
        <mxCell id="EcpB4iICE6naHUnbvn0D-39" value="+ Get_CharacterHealth_Percent(float): float&amp;nbsp; BP&lt;div&gt;+ Get_AmmoBar_Percent(float): float&amp;nbsp; BP&lt;br&gt;&lt;/div&gt;&lt;div&gt;+ Get_VialsBar_Percent(float): float&amp;nbsp; BP&lt;br&gt;&lt;/div&gt;&lt;div&gt;+/- GetPlayerController(UGameplayStatics): APawn&amp;nbsp; BP&lt;/div&gt;" style="text;strokeColor=none;fillColor=none;align=left;verticalAlign=top;spacingLeft=4;spacingRight=4;overflow=hidden;rotatable=0;points=[[0,0.5],[1,0.5]];portConstraint=eastwest;whiteSpace=wrap;html=1;" vertex="1" parent="EcpB4iICE6naHUnbvn0D-36">
          <mxGeometry y="158" width="270" height="132" as="geometry" />
        </mxCell>
        <mxCell id="EcpB4iICE6naHUnbvn0D-40" value="" style="endArrow=classic;html=1;rounded=0;entryX=0.422;entryY=1.045;entryDx=0;entryDy=0;entryPerimeter=0;" edge="1" parent="1" target="EcpB4iICE6naHUnbvn0D-21">
          <mxGeometry width="50" height="50" relative="1" as="geometry">
            <mxPoint x="1360" y="1640" as="sourcePoint" />
            <mxPoint x="1410" y="1590" as="targetPoint" />
          </mxGeometry>
        </mxCell>
        <mxCell id="EcpB4iICE6naHUnbvn0D-41" value="" style="endArrow=none;html=1;rounded=0;exitX=1;exitY=0.5;exitDx=0;exitDy=0;entryX=0.155;entryY=1.007;entryDx=0;entryDy=0;entryPerimeter=0;" edge="1" parent="1" source="EcpB4iICE6naHUnbvn0D-37" target="ZGs6x3_PHytGy2VI0v85-4">
          <mxGeometry width="50" height="50" relative="1" as="geometry">
            <mxPoint x="1510" y="1630" as="sourcePoint" />
            <mxPoint x="1560" y="1580" as="targetPoint" />
            <Array as="points">
              <mxPoint x="1760" y="1718" />
            </Array>
          </mxGeometry>
        </mxCell>
        <mxCell id="EcpB4iICE6naHUnbvn0D-42" value="&lt;span style=&quot;color: rgb(0, 0, 0); font-family: Helvetica; font-size: 11px; font-style: normal; font-variant-ligatures: normal; font-variant-caps: normal; font-weight: 400; letter-spacing: normal; orphans: 2; text-align: center; text-indent: 0px; text-transform: none; widows: 2; word-spacing: 0px; -webkit-text-stroke-width: 0px; white-space: nowrap; background-color: rgb(255, 255, 255); text-decoration-thickness: initial; text-decoration-style: initial; text-decoration-color: initial; display: inline !important; float: none;&quot;&gt;1&lt;/span&gt;" style="text;whiteSpace=wrap;html=1;" vertex="1" parent="1">
          <mxGeometry x="1765" y="1430" width="40" height="40" as="geometry" />
        </mxCell>
        <mxCell id="EcpB4iICE6naHUnbvn0D-43" value="&lt;span style=&quot;color: rgb(0, 0, 0); font-family: Helvetica; font-size: 11px; font-style: normal; font-variant-ligatures: normal; font-variant-caps: normal; font-weight: 400; letter-spacing: normal; orphans: 2; text-align: center; text-indent: 0px; text-transform: none; widows: 2; word-spacing: 0px; -webkit-text-stroke-width: 0px; white-space: nowrap; background-color: rgb(255, 255, 255); text-decoration-thickness: initial; text-decoration-style: initial; text-decoration-color: initial; display: inline !important; float: none;&quot;&gt;1&lt;/span&gt;" style="text;whiteSpace=wrap;html=1;" vertex="1" parent="1">
          <mxGeometry x="1520" y="1690" width="40" height="40" as="geometry" />
        </mxCell>
        <mxCell id="EcpB4iICE6naHUnbvn0D-45" value="Gets health from" style="text;html=1;align=center;verticalAlign=middle;whiteSpace=wrap;rounded=0;" vertex="1" parent="1">
          <mxGeometry x="1100" y="1300" width="60" height="30" as="geometry" />
        </mxCell>
        <mxCell id="EcpB4iICE6naHUnbvn0D-46" value="Gets health from" style="text;html=1;align=center;verticalAlign=middle;whiteSpace=wrap;rounded=0;" vertex="1" parent="1">
          <mxGeometry x="1570" y="1300" width="60" height="30" as="geometry" />
        </mxCell>
        <mxCell id="EcpB4iICE6naHUnbvn0D-47" value="Gets health/&lt;div&gt;ammo&lt;span style=&quot;background-color: initial;&quot;&gt;/&lt;/span&gt;&lt;/div&gt;&lt;div&gt;&lt;span style=&quot;background-color: initial;&quot;&gt;vials from&lt;/span&gt;&lt;/div&gt;" style="text;html=1;align=center;verticalAlign=middle;whiteSpace=wrap;rounded=0;" vertex="1" parent="1">
          <mxGeometry x="1700" y="1450" width="60" height="30" as="geometry" />
        </mxCell>
      </root>
    </mxGraphModel>
  </diagram>
</mxfile>
